<?xml version="1.0" encoding="UTF-8" standalone="no"?>
<svg
   xmlns:ns="http://ns.adobe.com/SaveForWeb/1.0/"
   xmlns:dc="http://purl.org/dc/elements/1.1/"
   xmlns:cc="http://creativecommons.org/ns#"
   xmlns:rdf="http://www.w3.org/1999/02/22-rdf-syntax-ns#"
   xmlns:svg="http://www.w3.org/2000/svg"
   xmlns="http://www.w3.org/2000/svg"
   xmlns:sodipodi="http://sodipodi.sourceforge.net/DTD/sodipodi-0.dtd"
   xmlns:inkscape="http://www.inkscape.org/namespaces/inkscape"
   version="1.1"
   x="0px"
   y="0px"
   viewBox="0 0 64 80"
   enable-background="new 0 0 64 64"
   xml:space="preserve"
   id="svg20"
   sodipodi:docname="discountDeactive.svg"
   inkscape:version="1.0.2-2 (e86c870879, 2021-01-15)"><defs
     id="defs24" /><sodipodi:namedview
     pagecolor="#ffffff"
     bordercolor="#666666"
     borderopacity="1"
     objecttolerance="10"
     gridtolerance="10"
     guidetolerance="10"
     inkscape:pageopacity="0"
     inkscape:pageshadow="2"
     inkscape:window-width="1920"
     inkscape:window-height="1000"
     id="namedview22"
     showgrid="false"
     inkscape:zoom="10.175"
     inkscape:cx="32"
     inkscape:cy="36.068796"
     inkscape:window-x="-11"
     inkscape:window-y="-11"
     inkscape:window-maximized="1"
     inkscape:current-layer="svg20" /><metadata
     id="metadata2"><ns:sfw><ns:slices /><ns:sliceSourceBounds
         height="16384"
         width="16389"
         x="-8165"
         y="-8160"
         bottomLeftOrigin="true" /></ns:sfw><rdf:RDF><cc:Work
         rdf:about=""><dc:format>image/svg+xml</dc:format><dc:type
           rdf:resource="http://purl.org/dc/dcmitype/StillImage" /><dc:title></dc:title></cc:Work></rdf:RDF></metadata><g
     id="g14"><g
       id="g12"><path
         d="M56.127,31.5l-2.982-5.167v-5.964c0-0.357-0.19-0.688-0.5-0.866l-5.166-2.982l-2.982-5.166    c-0.179-0.31-0.509-0.5-0.866-0.5h-5.965L32.5,7.873c-0.31-0.179-0.69-0.179-1,0l-5.167,2.982h-5.964    c-0.357,0-0.688,0.19-0.866,0.5l-2.982,5.166l-5.166,2.982c-0.31,0.179-0.5,0.509-0.5,0.866v5.964L7.873,31.5    c-0.178,0.31-0.178,0.69,0,1l2.982,5.165v5.965c0,0.357,0.19,0.688,0.5,0.866l5.166,2.982l2.982,5.166    c0.179,0.31,0.509,0.5,0.866,0.5h5.964l5.167,2.982c0.155,0.089,0.327,0.134,0.5,0.134s0.345-0.045,0.5-0.134l5.165-2.982h5.965    c0.357,0,0.688-0.19,0.866-0.5l2.982-5.166l5.166-2.982c0.31-0.179,0.5-0.509,0.5-0.866v-5.965l2.982-5.165    C56.306,32.19,56.306,31.81,56.127,31.5z M51.278,36.897c-0.088,0.152-0.134,0.324-0.134,0.5v5.655l-4.898,2.827    c-0.152,0.088-0.278,0.214-0.366,0.366l-2.827,4.898h-5.655c-0.176,0-0.348,0.046-0.5,0.134L32,54.106l-4.898-2.828    c-0.152-0.088-0.325-0.134-0.5-0.134h-5.655l-2.828-4.898c-0.088-0.152-0.214-0.278-0.366-0.366l-4.897-2.827v-5.655    c0-0.176-0.046-0.348-0.134-0.5L9.894,32l2.828-4.898c0.087-0.152,0.134-0.325,0.134-0.5v-5.655l4.897-2.827    c0.152-0.088,0.278-0.214,0.366-0.366l2.827-4.897h5.655c0.175,0,0.348-0.046,0.5-0.134L32,9.894l4.897,2.828    c0.152,0.087,0.324,0.134,0.5,0.134h5.655l2.827,4.897c0.088,0.152,0.214,0.278,0.366,0.366l4.898,2.828v5.655    c0,0.175,0.046,0.348,0.134,0.5L54.106,32L51.278,36.897z"
         id="path4" /><path
         d="M29,26c0-2.757-2.243-5-5-5s-5,2.243-5,5s2.243,5,5,5S29,28.757,29,26z M24,29c-1.654,0-3-1.346-3-3s1.346-3,3-3    s3,1.346,3,3S25.654,29,24,29z"
         id="path6" /><path
         d="M40,33c-2.757,0-5,2.243-5,5s2.243,5,5,5s5-2.243,5-5S42.757,33,40,33z M40,41c-1.654,0-3-1.346-3-3s1.346-3,3-3    s3,1.346,3,3S41.654,41,40,41z"
         id="path8" /><path
         d="M38.515,21.143c-0.475-0.284-1.088-0.13-1.372,0.343l-12,20c-0.284,0.474-0.131,1.088,0.343,1.372    C25.646,42.954,25.824,43,25.999,43c0.34,0,0.671-0.173,0.858-0.485l12-20C39.142,22.041,38.988,21.427,38.515,21.143z"
         id="path10" /></g></g></svg>
