<?xml version="1.0" encoding="UTF-8" standalone="no"?>
<svg
   xmlns:ns="http://ns.adobe.com/SaveForWeb/1.0/"
   xmlns:dc="http://purl.org/dc/elements/1.1/"
   xmlns:cc="http://creativecommons.org/ns#"
   xmlns:rdf="http://www.w3.org/1999/02/22-rdf-syntax-ns#"
   xmlns:svg="http://www.w3.org/2000/svg"
   xmlns="http://www.w3.org/2000/svg"
   xmlns:sodipodi="http://sodipodi.sourceforge.net/DTD/sodipodi-0.dtd"
   xmlns:inkscape="http://www.inkscape.org/namespaces/inkscape"
   version="1.1"
   x="0px"
   y="0px"
   viewBox="0 0 64 80"
   enable-background="new 0 0 64 64"
   xml:space="preserve"
   id="svg18"
   sodipodi:docname="discountActive.svg"
   inkscape:version="1.0.2-2 (e86c870879, 2021-01-15)"><defs
     id="defs22" /><sodipodi:namedview
     pagecolor="#ffffff"
     bordercolor="#666666"
     borderopacity="1"
     objecttolerance="10"
     gridtolerance="10"
     guidetolerance="10"
     inkscape:pageopacity="0"
     inkscape:pageshadow="2"
     inkscape:window-width="1348"
     inkscape:window-height="981"
     id="namedview20"
     showgrid="false"
     inkscape:zoom="10.175"
     inkscape:cx="32"
     inkscape:cy="51.793612"
     inkscape:window-x="269"
     inkscape:window-y="27"
     inkscape:window-maximized="0"
     inkscape:current-layer="svg18" /><metadata
     id="metadata2"><ns:sfw><ns:slices /><ns:sliceSourceBounds
         height="16384"
         width="16389"
         x="-8165"
         y="-8160"
         bottomLeftOrigin="true" /></ns:sfw><rdf:RDF><cc:Work
         rdf:about=""><dc:format>image/svg+xml</dc:format><dc:type
           rdf:resource="http://purl.org/dc/dcmitype/StillImage" /><dc:title></dc:title></cc:Work></rdf:RDF></metadata><g
     id="g12"><g
       id="g10"><circle
         cx="24"
         cy="26"
         r="3"
         id="circle4" /><circle
         cx="40"
         cy="38"
         r="3"
         id="circle6" /><path
         d="M56.127,31.5l-2.982-5.167v-5.964c0-0.357-0.19-0.688-0.5-0.866l-5.166-2.982l-2.982-5.166    c-0.179-0.31-0.509-0.5-0.866-0.5h-5.965L32.5,7.873c-0.31-0.179-0.69-0.179-1,0l-5.167,2.982h-5.964    c-0.357,0-0.688,0.19-0.866,0.5l-2.982,5.166l-5.166,2.982c-0.31,0.179-0.5,0.509-0.5,0.866v5.964L7.873,31.5    c-0.178,0.31-0.178,0.69,0,1l2.982,5.165v5.965c0,0.357,0.19,0.688,0.5,0.866l5.166,2.982l2.982,5.166    c0.179,0.31,0.509,0.5,0.866,0.5h5.964l5.167,2.982c0.155,0.089,0.327,0.134,0.5,0.134s0.345-0.045,0.5-0.134l5.165-2.982h5.965    c0.357,0,0.688-0.19,0.866-0.5l2.982-5.166l5.166-2.982c0.31-0.179,0.5-0.509,0.5-0.866v-5.965l2.982-5.165    C56.306,32.19,56.306,31.81,56.127,31.5z M19,26c0-2.757,2.243-5,5-5s5,2.243,5,5s-2.243,5-5,5S19,28.757,19,26z M26.857,42.515    C26.67,42.827,26.339,43,25.999,43c-0.175,0-0.353-0.046-0.514-0.143c-0.474-0.284-0.627-0.898-0.343-1.372l12-20    c0.284-0.473,0.897-0.627,1.372-0.343c0.474,0.284,0.627,0.898,0.343,1.372L26.857,42.515z M40,43c-2.757,0-5-2.243-5-5    s2.243-5,5-5s5,2.243,5,5S42.757,43,40,43z"
         id="path8" /></g></g></svg>
